<?xml version="1.0" encoding="UTF-8" standalone="no"?>
<svg
   xmlns:dc="http://purl.org/dc/elements/1.1/"
   xmlns:cc="http://creativecommons.org/ns#"
   xmlns:rdf="http://www.w3.org/1999/02/22-rdf-syntax-ns#"
   xmlns:svg="http://www.w3.org/2000/svg"
   xmlns="http://www.w3.org/2000/svg"
   xmlns:sodipodi="http://sodipodi.sourceforge.net/DTD/sodipodi-0.dtd"
   xmlns:inkscape="http://www.inkscape.org/namespaces/inkscape"
   width="253.67728mm"
   height="201.23521mm"
   viewBox="0 0 253.67728 201.23521"
   version="1.1"
   id="svg980"
   inkscape:version="1.0.1 (c497b03c, 2020-09-10)"
   sodipodi:docname="pavlov-dog.svg">
  <defs
     id="defs974" />
  <sodipodi:namedview
     id="base"
     pagecolor="#ffffff"
     bordercolor="#666666"
     borderopacity="1.0"
     inkscape:pageopacity="0.0"
     inkscape:pageshadow="2"
     inkscape:zoom="0.35"
     inkscape:cx="490.8187"
     inkscape:cy="406.00128"
     inkscape:document-units="mm"
     inkscape:current-layer="layer1"
     inkscape:document-rotation="0"
     showgrid="false"
     fit-margin-top="0"
     fit-margin-left="0"
     fit-margin-right="0"
     fit-margin-bottom="0"
     inkscape:window-width="1252"
     inkscape:window-height="997"
     inkscape:window-x="0"
     inkscape:window-y="25"
     inkscape:window-maximized="0" />
  <metadata
     id="metadata977">
    <rdf:RDF>
      <cc:Work
         rdf:about="">
        <dc:format>image/svg+xml</dc:format>
        <dc:type
           rdf:resource="http://purl.org/dc/dcmitype/StillImage" />
        <dc:title></dc:title>
      </cc:Work>
    </rdf:RDF>
  </metadata>
  <g
     inkscape:label="Layer 1"
     inkscape:groupmode="layer"
     id="layer1"
     transform="translate(24.029113,-40.745494)">
    <g
       id="g1329"
       transform="matrix(0.41611553,0,0,-0.41611553,-102.50843,368.22849)">
      <path
         style="fill:#bebebe;fill-opacity:1;stroke:none;stroke-width:0.75px;stroke-linecap:butt;stroke-linejoin:miter;stroke-opacity:1"
         d="m 357.78442,714.07187 74.85029,35.92814 97.30539,4.49102 89.82035,-35.92815 58.38324,-68.86227 V 547.90421 L 654.1916,441.61679 612.27543,371.25751 559.88022,344.3114 l -56.88623,13.47306 -34.43113,-7.48503 -43.41318,-7.48504 -34.43113,23.9521 -23.95209,32.93413 -25.44911,40.41916 -11.97604,44.91018 -11.97605,40.41916 -7.48503,31.43712 -2.99401,32.93414 4.49102,32.93412 16.46706,37.42516 16.46707,32.93412 z"
         id="path1144" />
      <path
         style="fill:#bebebe;fill-opacity:1;stroke:none;stroke-width:0.75px;stroke-linecap:butt;stroke-linejoin:miter;stroke-opacity:1"
         d="m 615.26944,769.46109 41.91617,2.994 55.38921,-11.97604 32.93414,-40.41916 37.42514,-89.82035 -7.485,-53.89222 -26.94613,4.49102 -31.43712,22.45509 -16.46707,23.95209 -22.45509,22.45509 -28.44312,46.40718 -47.90418,46.40719 z"
         id="path1148-2" />
      <g
         id="g887"
         transform="translate(688.7314,663.2925)"
         style="fill:#e6e6e6;fill-opacity:1">
        <path
           d="m 0,0 c 0,0 56.061,-61.767 62.735,-48.417 6.674,13.349 -19.027,130.648 -70.697,145.418 0,0 41.775,14.77 77.371,-49.75 35.598,-64.521 28.924,-113.467 20.025,-124.592 -8.9,-11.124 -15.575,-33.372 -44.497,0 C 16.014,-43.968 0,0 0,0"
           style="fill:#e6e6e6;fill-opacity:1;fill-rule:nonzero;stroke:none"
           id="path889" />
      </g>
      <g
         id="g891"
         transform="translate(460.6006,742.2207)"
         style="fill:#e6e6e6;fill-opacity:1">
        <path
           d="m 0,0 c 0,0 90.141,-6.627 159.551,-57.931 69.411,-51.303 9.053,-208.231 9.053,-208.231 0,0 0,-54.321 -42.25,-63.375 -42.25,-9.054 -58.006,30.878 -58.006,30.878 H 43.395 c 0,0 12.164,-43.532 44.543,-50.785 32.381,-7.253 68.595,-7.253 89.72,31.978 21.125,39.233 33.196,102.607 33.196,102.607 0,0 9.054,84.5 9.054,111.661 0,27.16 -99.589,120.714 -172.017,117.696 C -24.538,11.479 0,0 0,0"
           style="fill:#e6e6e6;fill-opacity:1;fill-rule:nonzero;stroke:none"
           id="path893" />
      </g>
      <path
         style="fill:#bebebe;fill-opacity:1;stroke:none;stroke-width:0.75px;stroke-linecap:butt;stroke-linejoin:miter;stroke-opacity:1"
         d="m 359.28142,755.98804 -41.91617,2.994 -55.38921,-11.97604 -32.93414,-40.41916 -37.42514,-89.82035 7.485,-53.89222 26.94613,4.49102 31.43712,22.45509 16.46707,23.95209 22.45509,22.45509 28.44312,46.40718 47.90418,46.40719 z"
         id="path1148" />
      <g
         id="g895"
         transform="translate(378.7236,744.647)"
         style="fill:#e6e6e6;fill-opacity:1">
        <path
           d="m 0,0 c 0,0 -78.464,54.321 -129.767,-63.375 -63.639,-145.994 16.638,-61.771 16.638,-61.771 0,0 -25.692,-55.925 -40.781,-46.872 -15.089,9.054 -36.214,15.09 -9.053,87.518 27.16,72.429 54.321,117.696 105.624,108.643 C -6.036,15.089 9.054,-3.018 9.054,-3.018 Z"
           style="fill:#e6e6e6;fill-opacity:1;fill-rule:nonzero;stroke:none"
           id="path897" />
      </g>
      <g
         id="g899"
         transform="translate(604.627,598.1885)">
        <path
           d="m 0,0 c 0,-14.13 -11.456,-25.586 -25.586,-25.586 -14.131,0 -25.586,11.456 -25.586,25.586 0,14.131 11.455,25.586 25.586,25.586 C -11.456,25.586 0,14.131 0,0"
           style="fill:#171518;fill-opacity:1;fill-rule:nonzero;stroke:none"
           id="path901" />
      </g>
      <g
         id="g903"
         transform="translate(437.7627,598.1885)">
        <path
           d="m 0,0 c 0,-14.13 -11.455,-25.586 -25.586,-25.586 -14.13,0 -25.585,11.456 -25.585,25.586 0,14.131 11.455,25.586 25.585,25.586 C -11.455,25.586 0,14.131 0,0"
           style="fill:#171518;fill-opacity:1;fill-rule:nonzero;stroke:none"
           id="path905" />
      </g>
      <path
         d="m 658.4014,512.8877 c -5.073,-18.044 -10.302,-34.063 -15.619,-48.279 0,-21.047 -9.478,-39.914 -24.384,-52.551 -11.992,-20.469 -23.851,-33.751 -34.752,-42.228 h -0.022 c -6.875,-5.383 -13.371,-8.833 -19.268,-10.968 -18.934,-6.875 -38.891,-3.293 -59.314,10.679 -2.047,1.402 -3.827,2.625 -6.63,3.203 l -2.737,0.58 -2.714,-0.58 c -2.692,-0.555 -4.45,-1.712 -6.452,-3.047 -21.804,-14.395 -43.073,-17.911 -63.186,-10.413 -5.829,2.181 -12.236,5.563 -19,10.724 -11.903,9.056 -24.919,23.584 -37.934,46.478 -10.457,10.723 -17.465,24.829 -19.2,40.514 -1.001,2.469 -1.98,5.006 -2.959,7.609 -5.385,14.194 -10.658,30.214 -15.73,48.279 -19.445,69.304 -14.461,124.592 14.84,164.328 47.322,64.209 142.546,68.658 150.066,68.925 6.719,-0.222 102.565,-4.36 150.155,-68.903 29.301,-39.736 34.307,-95.023 14.84,-164.35 m 6.652,180.213 c -55.955,75.845 -166.508,79.605 -171.18,79.739 l -5.762,0.133 -0.445,-0.423 c -23.473,-1.601 -116.138,-12.125 -165.796,-79.449 -34.441,-46.722 -40.87,-109.774 -19.067,-187.421 5.829,-20.758 12.125,-39.714 18.911,-56.867 6.897,-17.466 14.306,-33.062 22.182,-46.767 20.246,-35.242 43.696,-57.957 70.105,-67.791 8.232,-3.048 18.488,-5.473 30.302,-5.473 14.885,0 32.283,3.849 51.261,15.107 32.394,-19.824 60.049,-16.62 77.914,-10.123 24.74,9.01 46.901,29.812 66.39,62.206 10.478,17.443 20.179,38.268 29.056,62.385 5.362,14.573 10.435,30.347 15.196,47.323 21.781,77.647 15.374,140.699 -19.067,187.421"
         style="fill:#171518;fill-opacity:1;fill-rule:nonzero;stroke:none"
         id="path909" />
      <g
         id="g911"
         transform="translate(615.0967,749.6196)">
        <path
           d="m 0,0 c 30.094,-25.851 55.211,-60.735 77.812,-92.124 25.548,-35.481 49.678,-68.996 69.26,-71.667 2.888,-0.387 4.344,-0.15 6.201,3.819 13.056,27.893 -13.442,119.587 -50.378,153.309 C 72.764,20.853 26.223,9.7 0,0 m 148.559,-190.597 c -1.661,0 -3.359,0.117 -5.093,0.354 -30.942,4.219 -57.069,40.504 -87.321,82.519 -25.794,35.826 -55.033,76.432 -89.669,99.863 l -18.264,12.356 19.415,10.454 c 3.883,2.093 95.764,50.609 153.271,-1.894 43.956,-40.136 75.671,-143.505 56.558,-184.345 -5.834,-12.462 -16.2,-19.307 -28.897,-19.307"
           style="fill:#171518;fill-opacity:1;fill-rule:nonzero;stroke:none"
           id="path913" />
      </g>
      <path
         d="m 318.3833,760.2178 c -17.625,0 -35.421,-4.365 -49.544,-17.261 -36.936,-33.722 -63.435,-125.416 -50.378,-153.309 1.855,-3.969 3.309,-4.206 6.2,-3.819 19.583,2.671 43.713,36.186 69.262,71.667 22.589,31.376 47.695,66.243 77.772,92.09 -13.905,5.114 -33.499,10.632 -53.312,10.632 m -95.208,-201.195 c -12.699,0 -23.063,6.843 -28.896,19.307 -19.114,40.84 12.601,144.209 56.557,184.345 57.501,52.5 149.386,3.984 153.271,1.894 l 19.416,-10.454 -18.264,-12.356 c -34.638,-23.431 -63.876,-64.037 -89.67,-99.863 -30.253,-42.015 -56.379,-78.3 -87.321,-82.519 -1.734,-0.237 -3.433,-0.354 -5.093,-0.354"
         style="fill:#171518;fill-opacity:1;fill-rule:nonzero;stroke:none"
         id="path917" />
      <g
         id="g919"
         transform="translate(584.6025,445.7861)">
        <path
           d="m 0,0 c 0,-2.457 -1.992,-4.449 -4.449,-4.449 -2.458,0 -4.45,1.992 -4.45,4.449 0,2.458 1.992,4.45 4.45,4.45 C -1.992,4.45 0,2.458 0,0"
           style="fill:#171518;fill-opacity:1;fill-rule:nonzero;stroke:none"
           id="path921" />
      </g>
      <g
         id="g923"
         transform="translate(584.6025,430.2119)">
        <path
           d="m 0,0 c 0,-2.457 -1.992,-4.449 -4.449,-4.449 -2.458,0 -4.45,1.992 -4.45,4.449 0,2.458 1.992,4.45 4.45,4.45 C -1.992,4.45 0,2.458 0,0"
           style="fill:#171518;fill-opacity:1;fill-rule:nonzero;stroke:none"
           id="path925" />
      </g>
      <g
         id="g927"
         transform="translate(597.9521,434.6621)">
        <path
           d="m 0,0 c 0,-2.458 -1.992,-4.45 -4.45,-4.45 -2.457,0 -4.449,1.992 -4.449,4.45 0,2.457 1.992,4.449 4.449,4.449 C -1.992,4.449 0,2.457 0,0"
           style="fill:#171518;fill-opacity:1;fill-rule:nonzero;stroke:none"
           id="path929" />
      </g>
      <g
         id="g931"
         transform="translate(426.6387,443.5615)">
        <path
           d="m 0,0 c 0,-2.447 -2.002,-4.45 -4.45,-4.45 -2.447,0 -4.449,2.003 -4.449,4.45 0,2.447 2.002,4.449 4.449,4.449 C -2.002,4.449 0,2.447 0,0"
           style="fill:#171518;fill-opacity:1;fill-rule:nonzero;stroke:none"
           id="path933" />
      </g>
      <g
         id="g935"
         transform="translate(426.6387,427.9873)">
        <path
           d="m 0,0 c 0,-2.447 -2.002,-4.449 -4.45,-4.449 -2.447,0 -4.449,2.002 -4.449,4.449 0,2.447 2.002,4.45 4.449,4.45 C -2.002,4.45 0,2.447 0,0"
           style="fill:#171518;fill-opacity:1;fill-rule:nonzero;stroke:none"
           id="path937" />
      </g>
      <g
         id="g939"
         transform="translate(413.2896,432.4375)">
        <path
           d="m 0,0 c 0,-2.447 -2.002,-4.45 -4.45,-4.45 -2.447,0 -4.449,2.003 -4.449,4.45 0,2.447 2.002,4.449 4.449,4.449 C -2.002,4.449 0,2.447 0,0"
           style="fill:#171518;fill-opacity:1;fill-rule:nonzero;stroke:none"
           id="path941" />
      </g>
      <g
         id="g943"
         transform="translate(559.3066,390.543)">
        <path
           d="m 0,0 c -7.009,-50.036 -32.861,-87.147 -63.698,-87.147 -32.104,0 -58.802,40.225 -64.476,93.377 4.316,0.89 9.077,2.136 13.972,3.916 23.472,8.387 50.504,28.456 50.504,76.246 0,0 4.227,-58.359 50.014,-81.096 C -9.479,3.182 -4.939,1.402 0,0"
           style="fill:#171518;fill-opacity:1;fill-rule:nonzero;stroke:none"
           id="path945" />
      </g>
      <g
         id="g947"
         transform="translate(545.623,395.8389)">
        <path
           d="m 0,0 c -4.938,-42.65 -25.452,-74.645 -50.014,-74.645 -25.475,0 -46.611,34.442 -50.505,79.495 23.473,8.387 50.505,28.456 50.505,76.246 0,0 4.227,-58.359 50.014,-81.096"
           style="fill:#d36582;fill-opacity:1;fill-rule:nonzero;stroke:none"
           id="path949" />
      </g>
      <g
         id="g951"
         transform="translate(542.8643,467.6348)">
        <path
           d="m 0,0 c 0,-13.104 -12.525,-24.296 -30.19,-28.768 -2.715,-0.689 -5.54,-1.223 -8.456,-1.557 -2.825,-0.356 -5.717,-0.534 -8.676,-0.534 -3.538,0 -6.964,0.245 -10.279,0.734 -2.848,0.4 -5.607,0.979 -8.232,1.713 -16.931,4.695 -28.812,15.663 -28.812,28.412 0,17.042 21.181,30.881 47.323,30.881 C -21.181,30.881 0,17.042 0,0"
           style="fill:#171518;fill-opacity:1;fill-rule:nonzero;stroke:none"
           id="path953" />
      </g>
      <g
         id="g955"
         transform="translate(508.2236,464.6084)">
        <path
           d="m 0,0 c 0,-2.158 -0.066,-4.294 -0.223,-6.43 -0.466,-7.208 -1.756,-14.194 -3.782,-20.869 -2.247,-7.564 -5.428,-14.773 -9.433,-21.425 -16.197,-27.143 -45.52,-45.565 -79.138,-46.521 h -1.335 c -0.445,-0.023 -0.89,-0.023 -1.335,-0.023 v 26.365 c 0.289,0 0.601,0 0.89,0.022 0.29,0 0.601,-0.022 0.89,0 28.256,0.712 52.351,18.555 62.274,43.495 2.358,5.963 3.915,12.326 4.516,18.956 0.2,2.114 0.312,4.25 0.312,6.43 z"
           style="fill:#171518;fill-opacity:1;fill-rule:nonzero;stroke:none"
           id="path957" />
      </g>
      <g
         id="g959"
         transform="translate(415.6479,395.7051)">
        <path
           d="m 0,0 v -26.364 c -0.445,0 -0.89,0 -1.335,0.022 H -2.67 c -2.937,0.089 -5.807,0.311 -8.655,0.645 -24.006,2.87 -45.298,14.684 -60.426,32.038 -11.347,12.971 -19.223,29.056 -22.182,46.766 -0.868,5.139 -1.313,10.413 -1.313,15.796 h 23.828 c 0.979,-2.602 1.958,-5.139 2.959,-7.608 1.735,-15.686 8.744,-29.791 19.201,-40.515 C -37.133,8.365 -20.357,0.489 -1.78,0.022 c 0.289,0 0.601,-0.022 0.89,0 C -0.601,0 -0.29,0 0,0"
           style="fill:#171518;fill-opacity:1;fill-rule:nonzero;stroke:none"
           id="path961" />
      </g>
      <g
         id="g963"
         transform="translate(669.1475,464.6084)">
        <path
           d="m 0,0 c 0,-2.091 -0.067,-4.183 -0.223,-6.252 -1.58,-24.451 -12.415,-46.388 -29.056,-62.385 -14.929,-14.372 -34.508,-23.917 -56.222,-26.141 h -0.022 c -2.336,-0.245 -4.672,-0.378 -7.053,-0.467 h -1.335 c -0.445,-0.023 -0.89,-0.023 -1.335,-0.023 v 26.365 c 0.289,0 0.6,0 0.89,0.022 0.289,0 0.6,-0.022 0.89,0 16.241,0.423 31.125,6.474 42.717,16.33 14.906,12.637 24.384,31.504 24.384,52.551 z"
           style="fill:#171518;fill-opacity:1;fill-rule:nonzero;stroke:none"
           id="path965" />
      </g>
      <g
         id="g967"
         transform="translate(576.5713,395.7051)">
        <path
           d="m 0,0 v -26.364 c -0.445,0 -0.89,0 -1.335,0.022 H -2.67 c -33.617,0.956 -62.941,19.378 -79.116,46.522 -4.049,6.718 -7.253,13.971 -9.522,21.625 -1.98,6.63 -3.248,13.549 -3.715,20.669 -0.156,2.135 -0.223,4.271 -0.223,6.429 h 26.364 c 0,-2.179 0.111,-4.316 0.312,-6.429 0.623,-6.764 2.225,-13.26 4.673,-19.312 10.011,-24.763 33.995,-42.428 62.117,-43.14 0.289,0 0.6,-0.022 0.89,0 C -0.601,0 -0.289,0 0,0"
           style="fill:#171518;fill-opacity:1;fill-rule:nonzero;stroke:none"
           id="path969" />
      </g>
      <g
         id="g971"
         transform="translate(477.8101,340.71)">
        <path
           d="M 0,0 C 0,0 3.364,-15.981 15.981,-11.775 28.598,-7.57 8.411,-11.775 0,0"
           style="fill:#fffffd;fill-opacity:1;fill-rule:nonzero;stroke:none"
           id="path973" />
      </g>
      <g
         id="g975"
         transform="translate(593.502,608.2002)">
        <path
           d="m 0,0 c 0,-3.686 -2.988,-6.674 -6.674,-6.674 -3.686,0 -6.675,2.988 -6.675,6.674 0,3.687 2.989,6.675 6.675,6.675 C -2.988,6.675 0,3.687 0,0"
           style="fill:#fffffd;fill-opacity:1;fill-rule:nonzero;stroke:none"
           id="path977" />
      </g>
      <g
         id="g979"
         transform="translate(595.7275,597.0762)">
        <path
           d="m 0,0 c 0,-1.229 -0.996,-2.225 -2.226,-2.225 -1.228,0 -2.224,0.996 -2.224,2.225 0,1.229 0.996,2.225 2.224,2.225 C -0.996,2.225 0,1.229 0,0"
           style="fill:#fffffd;fill-opacity:1;fill-rule:nonzero;stroke:none"
           id="path981" />
      </g>
      <g
         id="g983"
         transform="translate(406.6147,597.0762)">
        <path
           d="m 0,0 c 0,-1.229 -0.996,-2.225 -2.225,-2.225 -1.229,0 -2.225,0.996 -2.225,2.225 0,1.229 0.996,2.225 2.225,2.225 C -0.996,2.225 0,1.229 0,0"
           style="fill:#fffffd;fill-opacity:1;fill-rule:nonzero;stroke:none"
           id="path985" />
      </g>
      <g
         id="g987"
         transform="translate(415.5142,608.2002)">
        <path
           d="m 0,0 c 0,-3.686 -2.988,-6.674 -6.674,-6.674 -3.687,0 -6.675,2.988 -6.675,6.674 0,3.687 2.988,6.675 6.675,6.675 C -2.988,6.675 0,3.687 0,0"
           style="fill:#fffffd;fill-opacity:1;fill-rule:nonzero;stroke:none"
           id="path989" />
      </g>
    </g>
  </g>
</svg>
